<svg width="43" height="31" viewBox="0 0 43 31" fill="none" xmlns="http://www.w3.org/2000/svg">
<path d="M14.9689 5.8916C15.8939 5.8916 16.7484 5.96161 17.5324 6.17163C18.3165 6.31165 18.9596 6.60043 19.5322 6.95048C20.1048 7.30052 20.5277 7.79932 20.8184 8.43815C21.1003 9.07697 21.25 9.85581 21.25 10.7047C21.25 11.6935 21.0386 12.5424 20.5365 13.1812C20.1048 13.82 19.4 14.3888 18.5367 14.8089C19.7524 15.1589 20.6774 15.7978 21.2412 16.6466C21.805 17.4955 22.1662 18.5543 22.1662 19.762C22.1662 20.7508 21.9548 21.5997 21.5936 22.3085C21.2412 23.0173 20.6686 23.6562 20.0255 24.0762C19.3824 24.505 18.5984 24.8551 17.7439 25.0651C16.8893 25.2751 16.0348 25.4151 15.1803 25.4151L5.6308 25.4326V5.8916H14.9689ZM14.3963 13.82C15.1803 13.82 15.8234 13.61 16.3167 13.2512C16.8101 12.8924 17.0303 12.2623 17.0303 11.4835C17.0303 11.0547 16.9598 10.6347 16.8189 10.3546C16.6779 10.0746 16.4665 9.85581 16.1758 9.64579C15.8939 9.50577 15.6032 9.36576 15.2508 9.29575C14.8984 9.22574 14.5372 9.22574 14.1143 9.22574H9.98269V13.8288C9.98269 13.82 14.3963 13.82 14.3963 13.82ZM14.6077 22.1773C15.0393 22.1773 15.4622 22.1072 15.8234 22.0372C16.1758 21.9672 16.537 21.8272 16.8189 21.6084C17.1008 21.3897 17.321 21.1796 17.5324 20.8296C17.6734 20.4796 17.8143 20.0508 17.8143 19.5519C17.8143 18.5631 17.5324 17.8542 16.9598 17.3554C16.3872 16.9266 15.6032 16.7166 14.6782 16.7166H9.98269V22.1685H14.6077V22.1773Z" fill="white"/>
<path d="M27.9498 21.6173C28.5224 22.1861 29.377 22.4661 30.5134 22.4661C31.2974 22.4661 32.011 22.2561 32.5836 21.8973C33.1562 21.4685 33.5086 21.0484 33.6496 20.6196H37.1381C36.5655 22.3173 35.711 23.525 34.5746 24.3038C33.4381 25.0126 32.0815 25.4327 30.4429 25.4327C29.3065 25.4327 28.3022 25.2227 27.3772 24.8639C26.4522 24.5138 25.7386 24.015 25.0955 23.3062C24.4524 22.6674 23.9591 21.8885 23.6684 20.9697C23.316 20.0508 23.1663 19.062 23.1663 17.9243C23.1663 16.8654 23.3072 15.8678 23.6684 14.949C24.0296 14.0301 24.5229 13.2513 25.166 12.5424C25.8091 11.9036 26.5932 11.3348 27.4477 10.9848C28.3727 10.6347 29.2977 10.4159 30.4429 10.4159C31.6586 10.4159 32.7246 10.626 33.6496 11.1248C34.5746 11.6236 35.2881 12.1837 35.8607 13.0325C36.4334 13.8113 36.8562 14.7302 37.1469 15.7191C37.2879 16.7079 37.3584 17.7055 37.2879 18.8344H26.9543C26.9543 19.9896 27.3772 21.0484 27.9498 21.6173ZM32.4427 14.1789C31.9405 13.6801 31.1565 13.4 30.2315 13.4C29.5884 13.4 29.0951 13.5401 28.6634 13.7501C28.2317 13.9601 27.9498 14.2489 27.6679 14.5289C27.386 14.809 27.2362 15.1677 27.1658 15.5178C27.0953 15.8678 27.0248 16.1566 27.0248 16.4366H33.4381C33.2972 15.3865 32.936 14.6777 32.4427 14.1789ZM26.1703 6.74927H34.1517V8.65699H26.1703V6.74927Z" fill="white"/>
</svg>
