<svg width="50" height="50" viewBox="0 0 50 50" fill="none" xmlns="http://www.w3.org/2000/svg">
<path d="M10.1562 37.5C10.1562 39.2188 11.3867 40.625 12.8906 40.625C13.5133 40.6189 14.1117 40.3823 14.5703 39.961C14.7217 39.8213 14.8995 39.7133 15.0933 39.6434C15.287 39.5735 15.4928 39.5432 15.6985 39.5541C15.9042 39.565 16.1057 39.617 16.2909 39.707C16.4762 39.797 16.6416 39.9232 16.7773 40.0781C17.057 40.3838 17.2038 40.788 17.1855 41.2019C17.1671 41.6158 16.9852 42.0054 16.6797 42.2852C15.6383 43.2204 14.2903 43.7416 12.8906 43.75C9.66797 43.75 7.03125 40.9375 7.03125 37.5C7.03125 34.0625 9.66797 31.25 12.8906 31.25C14.2903 31.2585 15.6383 31.7796 16.6797 32.7149C16.9852 32.9946 17.1671 33.3843 17.1855 33.7982C17.2038 34.212 17.057 34.6162 16.7773 34.9219C16.6416 35.0768 16.4762 35.203 16.2909 35.293C16.1057 35.3831 15.9042 35.435 15.6985 35.446C15.4928 35.4569 15.287 35.4265 15.0933 35.3566C14.8995 35.2868 14.7217 35.1788 14.5703 35.0391C14.1117 34.6178 13.5133 34.3812 12.8906 34.375C11.3867 34.375 10.1562 35.7813 10.1562 37.5ZM42.1875 17.1875V25C42.1875 25.4144 42.0229 25.8119 41.7299 26.1049C41.4368 26.3979 41.0394 26.5625 40.625 26.5625C40.2106 26.5625 39.8132 26.3979 39.5201 26.1049C39.2271 25.8119 39.0625 25.4144 39.0625 25V18.75H29.6875C29.2731 18.75 28.8757 18.5854 28.5826 18.2924C28.2896 17.9994 28.125 17.6019 28.125 17.1875V7.81253H10.9375V25C10.9375 25.4144 10.7729 25.8119 10.4799 26.1049C10.1868 26.3979 9.7894 26.5625 9.375 26.5625C8.9606 26.5625 8.56317 26.3979 8.27015 26.1049C7.97712 25.8119 7.8125 25.4144 7.8125 25V7.81253C7.8125 6.98372 8.14174 6.18887 8.72779 5.60282C9.31384 5.01677 10.1087 4.68753 10.9375 4.68753H29.6875C30.1032 4.68518 30.5031 4.84655 30.8008 5.13674L41.7187 16.0742C41.8687 16.218 41.9876 16.391 42.0682 16.5824C42.1488 16.7739 42.1894 16.9798 42.1875 17.1875V17.1875ZM36.8555 15.625L31.25 10.0196V15.625H36.8555ZM29.6875 39.8438C29.6875 42.4024 27.8516 43.9453 24.8047 43.9453C23.3865 43.9411 22.0083 43.4749 20.8789 42.6172C20.6964 42.4737 20.55 42.2894 20.4517 42.0791C20.3533 41.8688 20.3056 41.6384 20.3125 41.4063C20.3125 40.9919 20.4771 40.5944 20.7701 40.3014C21.0632 40.0084 21.4606 39.8438 21.875 39.8438C22.237 39.8465 22.5876 39.9702 22.8711 40.1953H22.8516C23.4281 40.5889 24.1068 40.8061 24.8047 40.8203C26.5625 40.8203 26.5625 40.2344 26.5625 39.8438C26.5625 39.4531 26.5625 39.668 26.3281 39.5313C26.0937 39.3946 25.1953 39.1016 24.5312 38.9258C22.8516 38.4766 20.3125 37.793 20.3125 35.1563C20.3125 32.5196 22.168 31.0547 24.8047 31.0547C26.2229 31.0589 27.601 31.5252 28.7305 32.3828C28.913 32.5263 29.0593 32.7106 29.1577 32.9209C29.2561 33.1312 29.3037 33.3617 29.2969 33.5938C29.2969 34.0082 29.1323 34.4056 28.8392 34.6986C28.5462 34.9917 28.1488 35.1563 27.7344 35.1563C27.3724 35.1536 27.0217 35.0298 26.7383 34.8047H26.7578C26.1813 34.4111 25.5026 34.1939 24.8047 34.1797C23.9062 34.1797 23.4375 34.5117 23.4375 35.1563V35.1953C23.6523 35.4492 24.7266 35.7422 25.332 35.8985C26.9531 36.3281 29.6875 37.0508 29.6875 39.8438ZM42.1875 39.8438C42.1875 42.4024 40.3516 43.9453 37.3047 43.9453C35.8865 43.9411 34.5083 43.4749 33.3789 42.6172C33.1964 42.4737 33.05 42.2894 32.9517 42.0791C32.8533 41.8688 32.8056 41.6384 32.8125 41.4063C32.8125 40.9919 32.9771 40.5944 33.2701 40.3014C33.5632 40.0084 33.9606 39.8438 34.375 39.8438C34.737 39.8465 35.0876 39.9702 35.3711 40.1953H35.3516C35.9281 40.5889 36.6068 40.8061 37.3047 40.8203C39.0625 40.8203 39.0625 40.2344 39.0625 39.8438C39.0625 39.4531 39.0625 39.668 38.8281 39.5313C38.5937 39.3946 37.6953 39.1016 37.0312 38.9258C35.3516 38.4766 32.8125 37.793 32.8125 35.1563C32.8125 32.5196 34.668 31.0547 37.3047 31.0547C38.7229 31.0589 40.101 31.5252 41.2305 32.3828C41.413 32.5263 41.5593 32.7106 41.6577 32.9209C41.7561 33.1312 41.8037 33.3617 41.7969 33.5938C41.7969 34.0082 41.6323 34.4056 41.3392 34.6986C41.0462 34.9917 40.6488 35.1563 40.2344 35.1563C39.8724 35.1536 39.5217 35.0298 39.2383 34.8047H39.2578C38.6813 34.4111 38.0026 34.1939 37.3047 34.1797C36.3867 34.1797 35.9375 34.5117 35.9375 35.1563V35.1953C36.1523 35.4492 37.2266 35.7422 37.832 35.8985C39.4531 36.3281 42.1875 37.0508 42.1875 39.8438Z" fill="#A0A0A1"/>
</svg>
