<svg width="50" height="50" viewBox="0 0 50 50" fill="none" xmlns="http://www.w3.org/2000/svg">
<path d="M43.3741 33.8477C41.2989 32.6465 38.7696 32.9688 37.0655 34.4727L34.4776 32.9736V25.5664C34.4776 24.7998 34.0674 24.0869 33.4034 23.7061L26.7628 19.8828V16.6064C28.921 15.874 30.4737 13.833 30.4737 11.4258C30.4737 8.40332 28.0274 5.95703 25.0049 5.95703C21.9825 5.95703 19.5362 8.40332 19.5362 11.4258C19.5362 13.833 21.0889 15.874 23.2471 16.6064V19.8828L16.6065 23.7061C15.9424 24.0869 15.5323 24.7998 15.5323 25.5664V32.9688L12.9444 34.4678C11.2403 32.9639 8.70612 32.6416 6.6358 33.8428C4.0235 35.3564 3.13483 38.6963 4.63385 41.3086C6.13776 43.9209 9.46295 44.8193 12.0655 43.3105C14.1407 42.1094 15.127 39.7461 14.6827 37.5098L17.0606 36.1279L23.9258 40.083C24.2579 40.2734 24.629 40.3711 25.0001 40.3711C25.3712 40.3711 25.7422 40.2734 26.0743 40.083L32.9346 36.1328L35.3126 37.5146C34.8682 39.7461 35.8594 42.1143 37.9297 43.3154C40.5323 44.8242 43.8624 43.9307 45.3614 41.3135C46.8653 38.6963 45.9766 35.3564 43.3741 33.8477V33.8477ZM10.5128 40.6055C10.2475 40.7591 9.95457 40.8587 9.6507 40.8986C9.34683 40.9386 9.03806 40.918 8.74216 40.8381C8.44627 40.7583 8.1691 40.6207 7.92659 40.4332C7.68409 40.2458 7.48105 40.0123 7.32916 39.7461C6.68463 38.6279 7.06549 37.1924 8.18366 36.5479C8.44887 36.3942 8.74184 36.2946 9.04571 36.2547C9.34959 36.2147 9.65835 36.2353 9.95425 36.3152C10.2501 36.3951 10.5273 36.5327 10.7698 36.7201C11.0123 36.9075 11.2154 37.141 11.3672 37.4072C12.0118 38.5254 11.6309 39.9609 10.5128 40.6055ZM22.6563 11.4258C22.6688 10.8125 22.9213 10.2285 23.3594 9.79917C23.7976 9.36985 24.3866 9.12939 25.0001 9.12939C25.6135 9.12939 26.2025 9.36985 26.6407 9.79917C27.0789 10.2285 27.3313 10.8125 27.3438 11.4258C27.3313 12.0391 27.0789 12.6231 26.6407 13.0524C26.2025 13.4817 25.6135 13.7222 25.0001 13.7222C24.3866 13.7222 23.7976 13.4817 23.3594 13.0524C22.9213 12.6231 22.6688 12.0391 22.6563 11.4258V11.4258ZM30.9571 33.2129L25.0001 36.6455L19.043 33.2129V26.3574L25.0001 22.9248L30.9571 26.3574V33.2129V33.2129ZM42.671 39.751C42.0264 40.8691 40.6006 41.2549 39.4874 40.6104C38.3741 39.9658 37.9883 38.5303 38.6329 37.4121C39.2774 36.2939 40.7032 35.9082 41.8165 36.5527C42.9346 37.1973 43.3155 38.6279 42.671 39.751Z" fill="#A0A0A1"/>
</svg>
