<svg width="32" height="32" viewBox="0 0 32 32" fill="none" xmlns="http://www.w3.org/2000/svg">
<g clip-path="url(#clip0_508_64)">
<path fill-rule="evenodd" clip-rule="evenodd" d="M0.630798 15.7487C0.630798 23.4547 6.22759 29.8627 13.5475 31.1621V19.9672H9.67246V15.6621H13.5475V12.2172C13.5475 8.34223 16.0443 6.19032 19.5757 6.19032C20.6943 6.19032 21.9007 6.36211 23.0193 6.5339V10.4954H21.0391C19.1443 10.4954 18.7141 11.4422 18.7141 12.6487V15.6621H22.8475L22.159 19.9672H18.7141V31.1621C26.034 29.8627 31.6308 23.456 31.6308 15.7487C31.6308 7.17586 24.6558 0.162109 16.1308 0.162109C7.6058 0.162109 0.630798 7.17586 0.630798 15.7487Z" fill="white"/>
</g>
<defs>
<clipPath id="clip0_508_64">
<rect width="31" height="31" fill="white" transform="translate(0.630798 0.162109)"/>
</clipPath>
</defs>
</svg>
