<svg width="25" height="25" viewBox="0 0 25 25" fill="none" xmlns="http://www.w3.org/2000/svg">
<g clip-path="url(#clip0_508_60)">
<rect width="24" height="24" transform="translate(0.630798 0.662109)" fill="#171718"/>
<path d="M20.6443 20.0608V8.2229H8.80646V7.48303C8.80646 6.25899 9.80202 5.26343 11.0261 5.26343H13.2457V0.824219H11.0261C9.26071 0.826412 7.56829 1.52867 6.31999 2.77696C5.0717 4.02526 4.36944 5.71768 4.36725 7.48303V8.2229H1.40778V12.6621H4.36725V20.0608H1.40778V24.5H11.7659V20.0608H8.80646V12.6621H16.2466V20.0608H13.2457V24.5H23.6038V20.0608H20.6443Z" fill="white"/>
<path d="M18.4247 5.26343C19.6506 5.26343 20.6443 4.26968 20.6443 3.04382C20.6443 1.81797 19.6506 0.824219 18.4247 0.824219C17.1989 0.824219 16.2051 1.81797 16.2051 3.04382C16.2051 4.26968 17.1989 5.26343 18.4247 5.26343Z" fill="white"/>
</g>
<defs>
<clipPath id="clip0_508_60">
<rect width="24" height="24" fill="white" transform="translate(0.630798 0.662109)"/>
</clipPath>
</defs>
</svg>
