<svg width="50" height="50" viewBox="0 0 50 50" fill="none" xmlns="http://www.w3.org/2000/svg">
<g clip-path="url(#clip0_578_97)">
<path d="M49.0564 22.7719L27.2251 0.94374C26.9262 0.644683 26.5713 0.407449 26.1807 0.245592C25.79 0.0837354 25.3714 0.000427246 24.9485 0.000427246C24.5257 0.000427246 24.107 0.0837354 23.7164 0.245592C23.3258 0.407449 22.9709 0.644683 22.672 0.94374L18.1407 5.47499L23.8907 11.225C24.5689 10.9935 25.2984 10.9572 25.9962 11.1205C26.6939 11.2837 27.3317 11.6398 27.8368 12.1481C28.3418 12.6564 28.6938 13.2965 28.8525 13.9953C29.0113 14.694 28.9704 15.4234 28.7345 16.1L34.2751 21.6437C35.0948 21.3551 35.9884 21.3542 36.8087 21.6413C37.629 21.9283 38.3271 22.4861 38.788 23.2228C39.249 23.9595 39.4453 24.8313 39.3447 25.6945C39.2441 26.5577 38.8525 27.3609 38.2345 27.9719C37.6088 28.6014 36.784 28.9941 35.9009 29.083C35.0178 29.172 34.1312 28.9515 33.3926 28.4593C32.654 27.9672 32.1092 27.2339 31.8512 26.3846C31.5933 25.5354 31.6382 24.6229 31.9782 23.8031L26.8126 18.6344V32.2375C27.5978 32.6262 28.226 33.2722 28.5926 34.0679C28.9593 34.8636 29.0421 35.7609 28.8273 36.6103C28.6125 37.4597 28.1131 38.2098 27.4124 38.7356C26.7116 39.2614 25.8518 39.5312 24.9762 39.4999C24.1007 39.4686 23.2623 39.1382 22.6008 38.5638C21.9393 37.9893 21.4947 37.2055 21.3411 36.3429C21.1874 35.4804 21.3341 34.5913 21.7565 33.8237C22.179 33.0562 22.8517 32.4566 23.6626 32.125V18.3969C23.1948 18.2052 22.7695 17.9227 22.4113 17.5659C22.0531 17.2091 21.7691 16.7849 21.5756 16.3177C21.3821 15.8506 21.283 15.3498 21.284 14.8442C21.285 14.3386 21.3861 13.8382 21.5813 13.3719L15.9157 7.70311L0.946975 22.6719C0.647918 22.9708 0.410684 23.3257 0.248827 23.7163C0.0869703 24.1069 0.00366211 24.5256 0.00366211 24.9484C0.00366211 25.3713 0.0869703 25.7899 0.248827 26.1806C0.410684 26.5712 0.647918 26.9261 0.946975 27.225L22.7782 49.0562C23.0771 49.3553 23.432 49.5925 23.8227 49.7544C24.2133 49.9162 24.632 49.9996 25.0548 49.9996C25.4776 49.9996 25.8963 49.9162 26.2869 49.7544C26.6775 49.5925 27.0324 49.3553 27.3314 49.0562L49.0595 27.3281C49.6627 26.724 50.0015 25.9052 50.0015 25.0516C50.0015 24.1979 49.6627 23.3791 49.0595 22.775" fill="#A0A0A1"/>
</g>
<defs>
<clipPath id="clip0_578_97">
<rect width="50" height="50" fill="white"/>
</clipPath>
</defs>
</svg>
