<svg width="32" height="32" viewBox="0 0 32 32" fill="none" xmlns="http://www.w3.org/2000/svg">
<path fill-rule="evenodd" clip-rule="evenodd" d="M10.2731 1.53911C11.7882 1.46936 12.2713 1.45386 16.1308 1.45386C19.9903 1.45386 20.4734 1.47065 21.9872 1.53911C23.5011 1.60757 24.5344 1.84911 25.4386 2.19915C26.3854 2.55694 27.2443 3.11623 27.9547 3.83957C28.6781 4.54869 29.2361 5.40636 29.5926 6.35444C29.9439 7.25861 30.1842 8.29194 30.2539 9.80319C30.3237 11.3209 30.3392 11.804 30.3392 15.6622C30.3392 19.5217 30.3224 20.0048 30.2539 21.5199C30.1854 23.0311 29.9439 24.0645 29.5926 24.9686C29.2361 25.9169 28.6771 26.7759 27.9547 27.4861C27.2443 28.2094 26.3854 28.7674 25.4386 29.1239C24.5344 29.4753 23.5011 29.7155 21.9898 29.7853C20.4734 29.855 19.9903 29.8705 16.1308 29.8705C12.2713 29.8705 11.7882 29.8537 10.2731 29.7853C8.76186 29.7168 7.72853 29.4753 6.82436 29.1239C5.87617 28.7674 5.01709 28.2085 4.3069 27.4861C3.58406 26.7766 3.02468 25.9179 2.66778 24.9699C2.31774 24.0658 2.07749 23.0324 2.00774 21.5212C1.93799 20.0035 1.92249 19.5204 1.92249 15.6622C1.92249 11.8027 1.93928 11.3196 2.00774 9.80577C2.07619 8.29194 2.31774 7.25861 2.66778 6.35444C3.02521 5.40646 3.58501 4.5478 4.30819 3.83827C5.01737 3.11559 5.8756 2.55622 6.82307 2.19915C7.72724 1.84911 8.76057 1.60886 10.2718 1.53911H10.2731ZM21.8723 4.09661C20.3739 4.02815 19.9244 4.01394 16.1308 4.01394C12.3372 4.01394 11.8877 4.02815 10.3894 4.09661C9.0034 4.1599 8.25165 4.39111 7.75049 4.58615C7.08786 4.84448 6.61382 5.15061 6.11653 5.6479C5.64513 6.10651 5.28234 6.66481 5.05478 7.28186C4.85974 7.78302 4.62853 8.53477 4.56524 9.92073C4.49678 11.4191 4.48257 11.8686 4.48257 15.6622C4.48257 19.4558 4.49678 19.9053 4.56524 21.4036C4.62853 22.7896 4.85974 23.5414 5.05478 24.0425C5.28211 24.6586 5.64507 25.2179 6.11653 25.6765C6.57507 26.1479 7.13436 26.5109 7.75049 26.7382C8.25165 26.9333 9.0034 27.1645 10.3894 27.2278C11.8877 27.2962 12.3359 27.3104 16.1308 27.3104C19.9257 27.3104 20.3739 27.2962 21.8723 27.2278C23.2582 27.1645 24.01 26.9333 24.5112 26.7382C25.1738 26.4799 25.6478 26.1738 26.1451 25.6765C26.6166 25.2179 26.9795 24.6586 27.2069 24.0425C27.4019 23.5414 27.6331 22.7896 27.6964 21.4036C27.7649 19.9053 27.7791 19.4558 27.7791 15.6622C27.7791 11.8686 27.7649 11.4191 27.6964 9.92073C27.6331 8.53477 27.4019 7.78302 27.2069 7.28186C26.9485 6.61923 26.6424 6.14519 26.1451 5.6479C25.6865 5.17653 25.1282 4.81375 24.5112 4.58615C24.01 4.39111 23.2582 4.1599 21.8723 4.09661V4.09661ZM14.316 20.0422C15.3295 20.4641 16.4581 20.5211 17.5089 20.2033C18.5598 19.8856 19.4677 19.2129 20.0776 18.3001C20.6876 17.3873 20.9617 16.2911 20.8532 15.1986C20.7447 14.1062 20.2603 13.0853 19.4827 12.3103C18.987 11.8149 18.3876 11.4356 17.7277 11.1997C17.0679 10.9637 16.3639 10.877 15.6665 10.9458C14.969 11.0146 14.2956 11.2372 13.6945 11.5975C13.0934 11.9578 12.5797 12.4469 12.1903 13.0296C11.801 13.6123 11.5456 14.274 11.4427 14.9672C11.3398 15.6604 11.3919 16.3678 11.5952 17.0385C11.7985 17.7091 12.1479 18.3264 12.6184 18.8458C13.0889 19.3652 13.6687 19.7738 14.316 20.0422ZM10.9667 10.4981C11.6449 9.81995 12.45 9.28201 13.336 8.91499C14.2221 8.54797 15.1718 8.35907 16.1308 8.35907C17.0899 8.35907 18.0395 8.54797 18.9256 8.91499C19.8117 9.28201 20.6167 9.81995 21.2949 10.4981C21.9731 11.1763 22.511 11.9814 22.878 12.8674C23.245 13.7535 23.4339 14.7031 23.4339 15.6622C23.4339 16.6212 23.245 17.5709 22.878 18.457C22.511 19.343 21.9731 20.1481 21.2949 20.8263C19.9253 22.1959 18.0677 22.9653 16.1308 22.9653C14.1939 22.9653 12.3363 22.1959 10.9667 20.8263C9.59713 19.4567 8.8277 17.5991 8.8277 15.6622C8.8277 13.7253 9.59713 11.8677 10.9667 10.4981V10.4981ZM25.0537 9.44669C25.2217 9.28816 25.3562 9.09753 25.4493 8.88607C25.5423 8.67462 25.592 8.44664 25.5954 8.21564C25.5988 7.98464 25.5558 7.75531 25.4689 7.54124C25.382 7.32716 25.2531 7.13268 25.0898 6.96932C24.9264 6.80597 24.7319 6.67704 24.5179 6.59019C24.3038 6.50334 24.0744 6.46033 23.8434 6.46369C23.6124 6.46706 23.3845 6.51674 23.173 6.6098C22.9616 6.70285 22.7709 6.83739 22.6124 7.00544C22.3041 7.33227 22.1353 7.76639 22.1418 8.21564C22.1484 8.66489 22.3298 9.09391 22.6475 9.41161C22.9652 9.72932 23.3942 9.91069 23.8434 9.91724C24.2927 9.92379 24.7268 9.755 25.0537 9.44669V9.44669Z" fill="white"/>
</svg>
