<svg width="50" height="50" viewBox="0 0 50 50" fill="none" xmlns="http://www.w3.org/2000/svg">
<path d="M15.625 32.8125V39.0625C15.625 40.3057 15.1311 41.498 14.2521 42.3771C13.373 43.2562 12.1807 43.75 10.9375 43.75C9.6943 43.75 8.50201 43.2562 7.62294 42.3771C6.74386 41.498 6.25 40.3057 6.25 39.0625C6.25 38.6481 6.41462 38.2507 6.70765 37.9577C7.00067 37.6646 7.3981 37.5 7.8125 37.5C8.2269 37.5 8.62433 37.6646 8.91735 37.9577C9.21038 38.2507 9.375 38.6481 9.375 39.0625C9.375 39.4769 9.53962 39.8744 9.83265 40.1674C10.1257 40.4604 10.5231 40.625 10.9375 40.625C11.3519 40.625 11.7493 40.4604 12.0424 40.1674C12.3354 39.8744 12.5 39.4769 12.5 39.0625V32.8125C12.5 32.3981 12.6646 32.0007 12.9576 31.7077C13.2507 31.4146 13.6481 31.25 14.0625 31.25C14.4769 31.25 14.8743 31.4146 15.1674 31.7077C15.4604 32.0007 15.625 32.3981 15.625 32.8125ZM42.1875 17.2266V42.1875C42.1875 43.0163 41.8583 43.8112 41.2722 44.3972C40.6862 44.9833 39.8913 45.3125 39.0625 45.3125H34.375C33.9606 45.3125 33.5632 45.1479 33.2701 44.8549C32.9771 44.5619 32.8125 44.1644 32.8125 43.75C32.8125 43.3356 32.9771 42.9382 33.2701 42.6452C33.5632 42.3521 33.9606 42.1875 34.375 42.1875H39.0625V18.75H29.6875C29.2731 18.75 28.8757 18.5854 28.5826 18.2924C28.2896 17.9994 28.125 17.6019 28.125 17.1875V7.81253H10.9375V25C10.9375 25.4144 10.7729 25.8119 10.4799 26.1049C10.1868 26.3979 9.7894 26.5625 9.375 26.5625C8.9606 26.5625 8.56317 26.3979 8.27015 26.1049C7.97712 25.8119 7.8125 25.4144 7.8125 25V7.81253C7.8125 6.98372 8.14174 6.18887 8.72779 5.60282C9.31384 5.01677 10.1087 4.68753 10.9375 4.68753H29.6875C30.1032 4.68518 30.5031 4.84655 30.8008 5.13674L41.7187 16.0742C41.8687 16.218 41.9876 16.391 42.0682 16.5824C42.1488 16.7739 42.1894 16.9798 42.1875 17.1875V17.2266ZM31.25 15.625H36.8555L31.25 10.0196V15.625ZM23.7695 35.8985C23.1641 35.7422 22.0898 35.4492 21.875 35.1953V35.1563C21.875 34.5117 22.3437 34.1797 23.2422 34.1797C23.9401 34.1939 24.6188 34.4111 25.1953 34.8047H25.1758C25.4592 35.0298 25.8099 35.1536 26.1719 35.1563C26.5863 35.1563 26.9837 34.9917 27.2767 34.6986C27.5698 34.4056 27.7344 34.0082 27.7344 33.5938C27.7382 33.365 27.6891 33.1384 27.5908 32.9317C27.4925 32.725 27.3478 32.5439 27.168 32.4024C26.041 31.5377 24.6626 31.0645 23.2422 31.0547C20.6055 31.0547 18.75 32.7344 18.75 35.1563C18.75 37.5781 21.2891 38.4766 22.9687 38.9258C23.6328 39.1016 24.3359 39.2774 24.7656 39.5313C25.1953 39.7852 25 39.7266 25 39.8438C25 39.961 25 40.8203 23.2422 40.8203C22.5443 40.8061 21.8656 40.5889 21.2891 40.1953H21.3086C21.0251 39.9702 20.6745 39.8465 20.3125 39.8438C19.8981 39.8438 19.5007 40.0084 19.2076 40.3014C18.9146 40.5944 18.75 40.9919 18.75 41.4063C18.7462 41.6351 18.7953 41.8617 18.8936 42.0684C18.9918 42.275 19.1365 42.4562 19.3164 42.5977C20.4434 43.4623 21.8218 43.9355 23.2422 43.9453C26.2891 43.9453 28.125 42.4024 28.125 39.8438C28.125 37.2852 25.3906 36.3281 23.7695 35.8985Z" fill="#A0A0A1"/>
</svg>
