<svg width="50" height="50" viewBox="0 0 50 50" fill="none" xmlns="http://www.w3.org/2000/svg">
<path d="M42.9688 5.46875H7.03125C6.16699 5.46875 5.46875 6.16699 5.46875 7.03125V42.9688C5.46875 43.833 6.16699 44.5312 7.03125 44.5312H42.9688C43.833 44.5312 44.5312 43.833 44.5312 42.9688V7.03125C44.5312 6.16699 43.833 5.46875 42.9688 5.46875ZM17.9688 36.3281C17.9688 36.543 17.793 36.7188 17.5781 36.7188H13.6719C13.457 36.7188 13.2812 36.543 13.2812 36.3281V13.6719C13.2812 13.457 13.457 13.2812 13.6719 13.2812H17.5781C17.793 13.2812 17.9688 13.457 17.9688 13.6719V36.3281ZM27.3438 22.6562C27.3438 22.8711 27.168 23.0469 26.9531 23.0469H23.0469C22.832 23.0469 22.6562 22.8711 22.6562 22.6562V13.6719C22.6562 13.457 22.832 13.2812 23.0469 13.2812H26.9531C27.168 13.2812 27.3438 13.457 27.3438 13.6719V22.6562ZM36.7188 26.1719C36.7188 26.3867 36.543 26.5625 36.3281 26.5625H32.4219C32.207 26.5625 32.0312 26.3867 32.0312 26.1719V13.6719C32.0312 13.457 32.207 13.2812 32.4219 13.2812H36.3281C36.543 13.2812 36.7188 13.457 36.7188 13.6719V26.1719Z" fill="#A0A0A1"/>
</svg>
