<svg width="50" height="50" viewBox="0 0 50 50" fill="none" xmlns="http://www.w3.org/2000/svg">
<path d="M17.8188 5.24999C16.4984 5.16093 15.2 5.39843 14.0625 6.05468C12.5453 6.92968 11.5344 8.42499 10.9922 10.1484C10.45 11.8672 10.325 13.8516 10.5234 16.0187C10.5422 16.2375 10.5813 16.4672 10.6078 16.6906C10.4016 16.7781 10.1828 16.8594 9.98281 16.9531C8.00781 17.8641 6.35313 18.9641 5.13281 20.2937C3.91406 21.625 3.125 23.2469 3.125 25C3.125 26.7516 3.91406 28.375 5.13281 29.7062C6.35156 31.0359 8.00781 32.1359 9.98281 33.0469C10.1828 33.1406 10.4016 33.2219 10.6078 33.3094C10.5813 33.5328 10.5422 33.7625 10.5219 33.9812C10.325 36.1484 10.45 38.1312 10.9922 39.8531C11.5344 41.575 12.5453 43.0687 14.0625 43.9453C15.5797 44.8203 17.3781 44.95 19.1406 44.5594C20.9031 44.1687 22.6828 43.2828 24.4594 42.0281C24.6391 41.9031 24.8188 41.7547 25 41.6203C25.1797 41.7547 25.3594 41.9016 25.5406 42.0281C27.3172 43.2828 29.0969 44.1687 30.8594 44.5594C32.6219 44.95 34.4203 44.8219 35.9375 43.9453C37.4547 43.0703 38.4656 41.575 39.0078 39.8516C39.55 38.1328 39.675 36.1484 39.4766 33.9812C39.4578 33.7625 39.4188 33.5328 39.3922 33.3094C39.5984 33.2219 39.8172 33.1406 40.0172 33.0469C41.9922 32.1359 43.6469 31.0359 44.8672 29.7062C46.0859 28.375 46.875 26.7531 46.875 25C46.875 23.2484 46.0859 21.625 44.8672 20.2937C43.6484 18.9641 41.9922 17.8641 40.0172 16.9531C39.8172 16.8594 39.5984 16.7781 39.3922 16.6906C39.4188 16.4672 39.4578 16.2375 39.4781 16.0187C39.675 13.8516 39.55 11.8687 39.0078 10.1469C38.4656 8.42499 37.4547 6.93124 35.9375 6.05468C34.4203 5.17968 32.6219 5.04999 30.8594 5.44062C29.0969 5.83124 27.3172 6.71718 25.5406 7.97187C25.3609 8.09687 25.1812 8.24531 25 8.37968C24.8203 8.24531 24.6406 8.09843 24.4594 7.97187C22.6828 6.71718 20.9031 5.83124 19.1406 5.44062C18.7055 5.34311 18.2636 5.27886 17.8188 5.24843V5.24999ZM17.6156 8.36249C17.8813 8.38124 18.1641 8.42499 18.4656 8.49374C19.6469 8.75468 21.0609 9.41718 22.5531 10.4547C21.243 11.7017 20.0286 13.0456 18.9203 14.475C17.1309 14.719 15.3624 15.0972 13.6297 15.6062C13.4766 13.7969 13.6078 12.2406 13.9703 11.0875C14.3437 9.90624 14.9 9.18124 15.625 8.76093C16.1687 8.44843 16.8156 8.30156 17.6141 8.36249H17.6156ZM32.3859 8.36249C33.1828 8.30156 33.8313 8.44843 34.375 8.76093C35.1 9.17968 35.6563 9.90624 36.0297 11.0875C36.3922 12.2406 36.5234 13.7969 36.3703 15.6062C34.6376 15.0972 32.8691 14.719 31.0797 14.475C29.9714 13.0456 28.757 11.7017 27.4469 10.4547C28.9391 9.41718 30.3531 8.75468 31.5344 8.49374C31.8359 8.42656 32.1187 8.38124 32.3859 8.36249V8.36249ZM25 12.4359C25.5484 12.9437 26.0969 13.5078 26.6453 14.0984C26.0971 14.0767 25.5486 14.0647 25 14.0625C24.4453 14.0625 23.9 14.0797 23.3547 14.0984C23.9016 13.5078 24.4516 12.9437 25 12.4359ZM25 17.1875C26.5078 17.1875 27.9687 17.2766 29.3734 17.425C30.2351 18.6048 31.0336 19.8294 31.7656 21.0937C32.5187 22.3984 33.1719 23.7078 33.7469 25C33.1559 26.3362 32.4946 27.6401 31.7656 28.9062C31.0336 30.1706 30.2351 31.3952 29.3734 32.575C27.9672 32.7234 26.5078 32.8125 25 32.8125C23.4922 32.8125 22.0313 32.7234 20.6266 32.575C19.7649 31.3952 18.9664 30.1706 18.2344 28.9062C17.4813 27.6016 16.8281 26.2922 16.2531 25C16.8266 23.7078 17.4813 22.3984 18.2344 21.0937C18.9875 19.7891 19.7953 18.5672 20.6266 17.425C22.0792 17.2686 23.539 17.1893 25 17.1875V17.1875ZM16.3813 18.125C16.0922 18.5859 15.8047 19.05 15.5281 19.5312C15.256 20.0078 14.9925 20.4891 14.7375 20.975C14.5031 20.231 14.2972 19.4784 14.1203 18.7187C14.8344 18.4984 15.5969 18.3031 16.3813 18.125V18.125ZM33.6188 18.125C34.4031 18.3031 35.1656 18.4984 35.8797 18.7187C35.7141 19.4484 35.5 20.2062 35.2625 20.975C35.0075 20.4891 34.744 20.0078 34.4719 19.5312C34.1958 19.0575 33.9114 18.5887 33.6188 18.125V18.125ZM11.1781 19.8484C11.5781 21.5125 12.1297 23.2391 12.8453 25C12.1611 26.6729 11.6038 28.395 11.1781 30.1516C9.53594 29.3781 8.25313 28.4844 7.4375 27.5937C6.60156 26.6812 6.25 25.8375 6.25 25C6.25 24.1625 6.60156 23.3187 7.4375 22.4062C8.25313 21.5156 9.53594 20.6219 11.1781 19.8484ZM38.8219 19.8484C40.4641 20.6219 41.7469 21.5156 42.5625 22.4062C43.3984 23.3187 43.75 24.1625 43.75 25C43.75 25.8375 43.3984 26.6812 42.5625 27.5937C41.7469 28.4844 40.4641 29.3781 38.8219 30.1516C38.3962 28.395 37.8389 26.6729 37.1547 25C37.8703 23.2391 38.4219 21.5125 38.8219 19.8484ZM25 20.3125C22.4297 20.3125 20.3125 22.4297 20.3125 25C20.3125 27.5703 22.4297 29.6875 25 29.6875C27.5703 29.6875 29.6875 27.5703 29.6875 25C29.6875 22.4297 27.5703 20.3125 25 20.3125ZM25 23.4375C25.8813 23.4375 26.5625 24.1187 26.5625 25C26.5625 25.8812 25.8813 26.5625 25 26.5625C24.1187 26.5625 23.4375 25.8812 23.4375 25C23.4375 24.1187 24.1187 23.4375 25 23.4375ZM14.7375 29.025C14.9922 29.5062 15.25 29.9875 15.5266 30.4687C15.8047 30.95 16.0922 31.4141 16.3813 31.875C15.5969 31.6969 14.8344 31.5016 14.1203 31.2812C14.2859 30.5516 14.5 29.7937 14.7375 29.025V29.025ZM35.2625 29.025C35.5 29.7937 35.7156 30.5516 35.8797 31.2812C35.1656 31.5016 34.4031 31.6969 33.6188 31.875C33.9078 31.4141 34.1953 30.95 34.4734 30.4687C34.75 29.9875 35.0078 29.5062 35.2625 29.025ZM13.6297 34.3937C15.2703 34.8781 17.0406 35.2656 18.9203 35.525C20.0875 37.025 21.3109 38.3656 22.5531 39.5453C21.0609 40.5828 19.6469 41.2453 18.4656 41.5062C17.2578 41.775 16.35 41.6562 15.625 41.2391C14.9 40.8203 14.3437 40.0937 13.9703 38.9125C13.6078 37.7594 13.4766 36.2031 13.6297 34.3937V34.3937ZM36.3703 34.3937C36.5234 36.2031 36.3922 37.7594 36.0297 38.9125C35.6563 40.0937 35.1 40.8187 34.375 41.2391C33.65 41.6562 32.7422 41.775 31.5344 41.5062C30.3531 41.2453 28.9391 40.5828 27.4469 39.5453C28.757 38.2983 29.9714 36.9544 31.0797 35.525C32.8691 35.281 34.6376 34.9028 36.3703 34.3937V34.3937ZM23.3547 35.9016C23.9 35.9203 24.4453 35.9375 25 35.9375C25.5547 35.9375 26.1 35.9203 26.6453 35.9016C26.0984 36.4922 25.5484 37.0562 25 37.5641C24.4306 37.0311 23.8817 36.4765 23.3547 35.9016Z" fill="#A0A0A1"/>
</svg>
