<svg width="25" height="25" viewBox="0 0 25 25" fill="none" xmlns="http://www.w3.org/2000/svg">
<path d="M22.1704 8.62061L15.9716 7.71974L13.2006 2.10206C13.125 1.94825 13.0005 1.82374 12.8466 1.74806C12.4609 1.55763 11.9921 1.71632 11.7993 2.10206L9.02828 7.71974L2.82955 8.62061C2.65865 8.64503 2.5024 8.7256 2.38277 8.84767C2.23815 8.99631 2.15845 9.1963 2.1612 9.40368C2.16395 9.61105 2.24891 9.80886 2.39742 9.95362L6.88229 14.3262L5.82272 20.5005C5.79787 20.6441 5.81376 20.7918 5.86859 20.9269C5.92343 21.062 6.015 21.1789 6.13294 21.2646C6.25088 21.3503 6.39046 21.4012 6.53585 21.4115C6.68124 21.4219 6.82663 21.3913 6.95553 21.3233L12.5 18.4082L18.0444 21.3233C18.1958 21.4038 18.3715 21.4307 18.54 21.4014C18.9648 21.3281 19.2505 20.9253 19.1772 20.5005L18.1176 14.3262L22.6025 9.95362C22.7246 9.83399 22.8051 9.67774 22.8296 9.50685C22.8955 9.0796 22.5976 8.68409 22.1704 8.62061V8.62061Z" fill="#86DEE2"/>
</svg>
